<svg width="130" height="34" viewBox="0 0 130 34" fill="none" xmlns="http://www.w3.org/2000/svg">
<g clip-path="url(#clip0)">
<path d="M128 15H2C0.89543 15 0 15.8954 0 17C0 18.1046 0.89543 19 2 19H128C129.105 19 130 18.1046 130 17C130 15.8954 129.105 15 128 15Z" fill="#468962"/>
<path d="M115.813 14.759L107.442 6.38821C106.661 5.60716 105.395 5.60716 104.614 6.38821C103.833 7.16926 103.833 8.43559 104.614 9.21664L112.985 17.5874C113.766 18.3685 115.032 18.3685 115.813 17.5874C116.594 16.8064 116.594 15.5401 115.813 14.759Z" fill="#468962"/>
<path d="M101.813 14.759L90.8856 3.83157C90.1046 3.05052 88.8382 3.05052 88.0572 3.83157C87.2761 4.61262 87.2761 5.87895 88.0572 6.66L98.9846 17.5874C99.7657 18.3685 101.032 18.3685 101.813 17.5874C102.594 16.8064 102.594 15.54 101.813 14.759Z" fill="#468962"/>
<path d="M87.813 14.759L75.9339 2.87991C75.1529 2.09886 73.8865 2.09886 73.1055 2.87991C72.3245 3.66096 72.3245 4.92729 73.1055 5.70834L84.9846 17.5874C85.7657 18.3685 87.032 18.3685 87.813 17.5874C88.5941 16.8064 88.5941 15.5401 87.813 14.759Z" fill="#468962"/>
<path d="M73.813 14.7591L60.4715 1.41757C59.6905 0.636522 58.4241 0.636522 57.6431 1.41757C56.862 2.19862 56.862 3.46495 57.6431 4.246L70.9846 17.5875C71.7656 18.3685 73.032 18.3685 73.813 17.5875C74.5941 16.8064 74.5941 15.5401 73.813 14.7591Z" fill="#468962"/>
<path d="M59.813 14.759L46.4682 1.41421C45.6872 0.633165 44.4209 0.633165 43.6398 1.41421C42.8588 2.19526 42.8588 3.46159 43.6398 4.24264L56.9846 17.5874C57.7657 18.3685 59.032 18.3685 59.813 17.5874C60.5941 16.8064 60.5941 15.5401 59.813 14.759Z" fill="#468962"/>
<path d="M45.813 14.759L33.8509 2.79697C33.0699 2.01592 31.8035 2.01592 31.0225 2.79697C30.2414 3.57801 30.2414 4.84434 31.0225 5.62539L42.9845 17.5874C43.7656 18.3685 45.0319 18.3685 45.813 17.5874C46.594 16.8064 46.594 15.5401 45.813 14.759Z" fill="#468962"/>
<path d="M31.813 14.7591L21.9632 4.90927C21.1822 4.12822 19.9158 4.12822 19.1348 4.90927C18.3537 5.69032 18.3537 6.95665 19.1348 7.7377L28.9846 17.5875C29.7656 18.3685 31.032 18.3685 31.813 17.5875C32.5941 16.8064 32.5941 15.5401 31.813 14.7591Z" fill="#468962"/>
<path d="M17.8129 14.759L11.2426 8.18875C10.4616 7.4077 9.19526 7.4077 8.41422 8.18875C7.63317 8.9698 7.63317 10.2361 8.41422 11.0172L14.9844 17.5874C15.7655 18.3684 17.0318 18.3684 17.8129 17.5874C18.5939 16.8064 18.5939 15.54 17.8129 14.759Z" fill="#468962"/>
<path d="M115.813 19.2427L107.442 27.6135C106.661 28.3945 105.395 28.3945 104.614 27.6135C103.833 26.8324 103.833 25.5661 104.614 24.7851L112.985 16.4143C113.766 15.6332 115.032 15.6332 115.813 16.4143C116.594 17.1953 116.594 18.4616 115.813 19.2427Z" fill="#468962"/>
<path d="M101.813 19.2427L90.8856 30.1701C90.1046 30.9511 88.8382 30.9511 88.0572 30.1701C87.2761 29.389 87.2761 28.1227 88.0572 27.3416L98.9846 16.4142C99.7657 15.6332 101.032 15.6332 101.813 16.4142C102.594 17.1953 102.594 18.4616 101.813 19.2427Z" fill="#468962"/>
<path d="M87.813 19.2427L75.9339 31.1218C75.1529 31.9028 73.8865 31.9028 73.1055 31.1218C72.3245 30.3407 72.3245 29.0744 73.1055 28.2934L84.9846 16.4143C85.7657 15.6332 87.032 15.6332 87.813 16.4143C88.5941 17.1953 88.5941 18.4616 87.813 19.2427Z" fill="#468962"/>
<path d="M73.813 19.2426L60.4715 32.5841C59.6905 33.3651 58.4241 33.3651 57.6431 32.5841C56.862 31.803 56.862 30.5367 57.6431 29.7556L70.9846 16.4142C71.7656 15.6331 73.032 15.6331 73.813 16.4142C74.5941 17.1952 74.5941 18.4615 73.813 19.2426Z" fill="#468962"/>
<path d="M59.813 19.2427L46.4682 32.5875C45.6872 33.3685 44.4209 33.3685 43.6398 32.5875C42.8588 31.8064 42.8588 30.5401 43.6398 29.7591L56.9846 16.4143C57.7657 15.6332 59.032 15.6332 59.813 16.4143C60.5941 17.1953 60.5941 18.4616 59.813 19.2427Z" fill="#468962"/>
<path d="M45.813 19.2426L33.8509 31.2047C33.0699 31.9857 31.8035 31.9857 31.0225 31.2047C30.2414 30.4236 30.2414 29.1573 31.0225 28.3763L42.9846 16.4142C43.7656 15.6331 45.0319 15.6331 45.813 16.4142C46.594 17.1952 46.594 18.4616 45.813 19.2426Z" fill="#468962"/>
<path d="M31.813 19.2427L21.9632 29.0925C21.1822 29.8735 19.9158 29.8735 19.1348 29.0925C18.3537 28.3115 18.3537 27.0451 19.1348 26.2641L28.9846 16.4143C29.7656 15.6332 31.032 15.6332 31.813 16.4143C32.5941 17.1953 32.5941 18.4617 31.813 19.2427Z" fill="#468962"/>
<path d="M17.8129 19.2427L11.2426 25.8129C10.4616 26.5939 9.19527 26.5939 8.41422 25.8129C7.63317 25.0318 7.63317 23.7655 8.41422 22.9845L14.9844 16.4142C15.7655 15.6332 17.0318 15.6332 17.8129 16.4142C18.5939 17.1953 18.5939 18.4616 17.8129 19.2427Z" fill="#468962"/>
</g>
<defs>
<clipPath id="clip0">
<rect width="130" height="34" fill="white"/>
</clipPath>
</defs>
</svg>
