<svg width="165" height="35" viewBox="0 0 165 35" fill="none" xmlns="http://www.w3.org/2000/svg">
<mask id="mask0" mask-type="alpha" maskUnits="userSpaceOnUse" x="0" y="0" width="32" height="32">
<circle cx="16" cy="16" r="16" fill="#66BBC7"/>
</mask>
<g mask="url(#mask0)">
<path d="M-6 26C-6 26 3 19 9.5 19C16 19 18.4583 23 23 23C30 23 35 14 35 14L25.5 37.5L3.5 37L-6 26Z" fill="#39BF71"/>
<path d="M1 30C1 30 10 23 16.5 23C23 23 25.4583 27 30 27C37 27 42 18 42 18L32.5 41.5L10.5 41L1 30Z" fill="#27A95D"/>
<path d="M9 37L22.5 9L35 37H9Z" fill="#2C7E4F"/>
<path d="M1 36L9 15L17 36H1Z" fill="#369860"/>
</g>
<path d="M57.408 12.008C57.296 13.528 57.24 14.888 57.24 16.088C57.24 16.84 57.264 17.448 57.312 17.912H56.76C56.376 15.944 55.848 14.56 55.176 13.76C54.52 12.96 53.616 12.56 52.464 12.56H51.912V26.264C51.912 26.936 51.976 27.424 52.104 27.728C52.248 28.032 52.488 28.24 52.824 28.352C53.176 28.448 53.728 28.504 54.48 28.52V29C52.464 28.952 50.944 28.928 49.92 28.928C48.912 28.928 47.448 28.952 45.528 29V28.52C46.28 28.504 46.824 28.448 47.16 28.352C47.512 28.24 47.752 28.032 47.88 27.728C48.024 27.424 48.096 26.936 48.096 26.264V12.56H47.568C46.8 12.56 46.144 12.728 45.6 13.064C45.072 13.4 44.616 13.96 44.232 14.744C43.848 15.512 43.52 16.568 43.248 17.912H42.696C42.744 17.448 42.768 16.84 42.768 16.088C42.768 14.888 42.712 13.528 42.6 12.008C44.056 12.056 46.528 12.08 50.016 12.08C53.504 12.08 55.968 12.056 57.408 12.008ZM66.8633 16.256C67.5833 16.256 68.1273 16.472 68.4953 16.904C68.8633 17.336 69.0473 17.856 69.0473 18.464C69.0473 19.056 68.8713 19.544 68.5193 19.928C68.1833 20.296 67.7353 20.48 67.1753 20.48C66.6313 20.48 66.1993 20.344 65.8793 20.072C65.5593 19.784 65.3993 19.408 65.3993 18.944C65.3993 18.176 65.7513 17.552 66.4553 17.072C66.3913 17.056 66.2953 17.048 66.1673 17.048C66.0073 17.048 65.8793 17.064 65.7833 17.096C65.1753 17.192 64.6553 17.56 64.2233 18.2C63.8073 18.84 63.5993 19.496 63.5993 20.168V26.528C63.5993 27.264 63.7753 27.776 64.1273 28.064C64.4953 28.352 65.0713 28.496 65.8553 28.496V29C65.6313 29 65.4473 28.992 65.3033 28.976C63.6713 28.928 62.5833 28.904 62.0393 28.904C61.6073 28.904 60.6233 28.928 59.0873 28.976C58.9593 28.992 58.7993 29 58.6073 29V28.496C59.1833 28.496 59.5833 28.376 59.8073 28.136C60.0313 27.88 60.1433 27.424 60.1433 26.768V19.208C60.1433 18.472 60.0313 17.936 59.8073 17.6C59.5833 17.264 59.1833 17.096 58.6073 17.096V16.592C59.1193 16.64 59.6153 16.664 60.0953 16.664C61.5193 16.664 62.6873 16.552 63.5993 16.328V18.56C63.9033 17.872 64.3433 17.32 64.9193 16.904C65.4953 16.472 66.1433 16.256 66.8633 16.256ZM72.9784 29.168C71.9544 29.168 71.1864 28.904 70.6744 28.376C70.1784 27.848 69.9304 27.152 69.9304 26.288C69.9304 25.568 70.1144 24.976 70.4824 24.512C70.8664 24.032 71.3224 23.664 71.8504 23.408C72.3944 23.152 73.0824 22.88 73.9144 22.592C74.7944 22.288 75.4344 22.016 75.8344 21.776C76.2504 21.52 76.4584 21.176 76.4584 20.744V18.872C76.4584 18.2 76.2984 17.68 75.9784 17.312C75.6744 16.928 75.1944 16.736 74.5384 16.736C73.7704 16.736 73.1864 16.928 72.7864 17.312C73.2344 17.472 73.5784 17.712 73.8184 18.032C74.0744 18.352 74.2024 18.728 74.2024 19.16C74.2024 19.704 74.0184 20.136 73.6504 20.456C73.2824 20.776 72.8344 20.936 72.3064 20.936C71.7464 20.936 71.3144 20.76 71.0104 20.408C70.7064 20.056 70.5544 19.616 70.5544 19.088C70.5544 18.64 70.6584 18.264 70.8664 17.96C71.0904 17.64 71.4264 17.344 71.8744 17.072C72.3064 16.816 72.8344 16.616 73.4584 16.472C74.0984 16.328 74.7944 16.256 75.5464 16.256C76.3304 16.256 77.0104 16.336 77.5864 16.496C78.1624 16.656 78.6424 16.928 79.0264 17.312C79.3784 17.664 79.6104 18.096 79.7224 18.608C79.8504 19.12 79.9144 19.816 79.9144 20.696V27.224C79.9144 27.608 79.9464 27.88 80.0104 28.04C80.0904 28.2 80.2344 28.28 80.4424 28.28C80.6824 28.28 80.9704 28.144 81.3064 27.872L81.5464 28.28C80.8264 28.872 79.9464 29.168 78.9064 29.168C78.0264 29.168 77.4104 28.992 77.0584 28.64C76.7064 28.288 76.5224 27.816 76.5064 27.224C75.7064 28.52 74.5304 29.168 72.9784 29.168ZM74.8264 27.632C75.4504 27.632 75.9944 27.304 76.4584 26.648V21.728C76.2664 22.048 75.8584 22.4 75.2344 22.784C74.6104 23.184 74.1384 23.584 73.8184 23.984C73.4984 24.384 73.3384 24.96 73.3384 25.712C73.3384 26.368 73.4744 26.856 73.7464 27.176C74.0184 27.48 74.3784 27.632 74.8264 27.632ZM85.3523 10.4C86.0243 10.4 86.5523 10.568 86.9363 10.904C87.3363 11.224 87.5363 11.672 87.5363 12.248C87.5363 12.824 87.3363 13.28 86.9363 13.616C86.5523 13.936 86.0243 14.096 85.3523 14.096C84.6803 14.096 84.1443 13.936 83.7443 13.616C83.3603 13.28 83.1683 12.824 83.1683 12.248C83.1683 11.672 83.3603 11.224 83.7443 10.904C84.1443 10.568 84.6803 10.4 85.3523 10.4ZM87.2243 26.768C87.2243 27.424 87.3363 27.88 87.5603 28.136C87.8003 28.376 88.2003 28.496 88.7603 28.496V29C87.1603 28.936 86.0963 28.904 85.5683 28.904C85.0723 28.904 83.9602 28.936 82.2323 29V28.496C82.8083 28.496 83.2083 28.376 83.4323 28.136C83.6563 27.88 83.7683 27.424 83.7683 26.768V19.208C83.7683 18.472 83.6563 17.936 83.4323 17.6C83.2083 17.264 82.8083 17.096 82.2323 17.096V16.592C82.7443 16.64 83.2403 16.664 83.7203 16.664C85.1443 16.664 86.3123 16.552 87.2243 16.328V26.768ZM94.6986 26.768C94.6986 27.424 94.8106 27.88 95.0346 28.136C95.2586 28.376 95.6586 28.496 96.2346 28.496V29C94.5706 28.936 93.4986 28.904 93.0186 28.904C92.4746 28.904 91.3706 28.936 89.7066 29V28.496C90.2666 28.496 90.6586 28.376 90.8826 28.136C91.1226 27.88 91.2426 27.424 91.2426 26.768V13.088C91.2426 12.352 91.1226 11.816 90.8826 11.48C90.6586 11.144 90.2666 10.976 89.7066 10.976V10.472C90.2186 10.52 90.7146 10.544 91.1946 10.544C92.5866 10.544 93.7546 10.432 94.6986 10.208V26.768ZM102.268 18.488C102.988 17 104.292 16.256 106.18 16.256C107.428 16.256 108.308 16.568 108.82 17.192C109.092 17.496 109.284 17.896 109.396 18.392C109.524 18.872 109.588 19.512 109.588 20.312V26.768C109.588 27.424 109.7 27.88 109.924 28.136C110.148 28.376 110.548 28.496 111.124 28.496V29C109.46 28.936 108.404 28.904 107.956 28.904C107.412 28.904 106.372 28.936 104.836 29V28.496C105.316 28.496 105.652 28.376 105.844 28.136C106.036 27.88 106.132 27.424 106.132 26.768V19.304C106.132 18.648 106.02 18.152 105.796 17.816C105.588 17.48 105.204 17.312 104.644 17.312C103.972 17.312 103.404 17.576 102.94 18.104C102.492 18.616 102.268 19.272 102.268 20.072V26.768C102.268 27.424 102.364 27.88 102.556 28.136C102.748 28.376 103.084 28.496 103.564 28.496V29C102.028 28.936 101.036 28.904 100.588 28.904C100.044 28.904 98.9403 28.936 97.2763 29V28.496C97.8363 28.496 98.2283 28.376 98.4523 28.136C98.6923 27.88 98.8123 27.424 98.8123 26.768V13.112C98.8123 12.376 98.6923 11.84 98.4523 11.504C98.2283 11.168 97.8363 11 97.2763 11V10.496C97.7883 10.544 98.2843 10.568 98.7643 10.568C100.156 10.568 101.324 10.456 102.268 10.232V18.488ZM119.054 27.368C120.366 27.368 121.422 26.728 122.222 25.448L122.654 25.592C122.334 26.632 121.758 27.52 120.926 28.256C120.11 28.976 119.086 29.336 117.854 29.336C116.158 29.336 114.806 28.8 113.798 27.728C112.806 26.64 112.31 25.04 112.31 22.928C112.31 20.768 112.846 19.12 113.918 17.984C114.99 16.832 116.414 16.256 118.19 16.256C121.198 16.256 122.702 18.032 122.702 21.584H115.958C115.942 21.824 115.934 22.2 115.934 22.712C115.934 23.768 116.078 24.648 116.366 25.352C116.67 26.056 117.054 26.568 117.518 26.888C117.998 27.208 118.51 27.368 119.054 27.368ZM118.046 16.76C117.47 16.76 116.99 17.12 116.606 17.84C116.238 18.544 116.006 19.64 115.91 21.128H119.678C119.71 19.864 119.582 18.824 119.294 18.008C119.022 17.176 118.606 16.76 118.046 16.76ZM127.26 29.168C126.236 29.168 125.468 28.904 124.956 28.376C124.46 27.848 124.212 27.152 124.212 26.288C124.212 25.568 124.396 24.976 124.764 24.512C125.148 24.032 125.604 23.664 126.132 23.408C126.676 23.152 127.364 22.88 128.196 22.592C129.076 22.288 129.716 22.016 130.116 21.776C130.532 21.52 130.74 21.176 130.74 20.744V18.872C130.74 18.2 130.58 17.68 130.26 17.312C129.956 16.928 129.476 16.736 128.82 16.736C128.052 16.736 127.468 16.928 127.068 17.312C127.516 17.472 127.86 17.712 128.1 18.032C128.356 18.352 128.484 18.728 128.484 19.16C128.484 19.704 128.3 20.136 127.932 20.456C127.564 20.776 127.116 20.936 126.588 20.936C126.028 20.936 125.596 20.76 125.292 20.408C124.988 20.056 124.836 19.616 124.836 19.088C124.836 18.64 124.94 18.264 125.148 17.96C125.372 17.64 125.708 17.344 126.156 17.072C126.588 16.816 127.116 16.616 127.74 16.472C128.38 16.328 129.076 16.256 129.828 16.256C130.612 16.256 131.292 16.336 131.868 16.496C132.444 16.656 132.924 16.928 133.308 17.312C133.66 17.664 133.892 18.096 134.004 18.608C134.132 19.12 134.196 19.816 134.196 20.696V27.224C134.196 27.608 134.228 27.88 134.292 28.04C134.372 28.2 134.516 28.28 134.724 28.28C134.964 28.28 135.252 28.144 135.588 27.872L135.828 28.28C135.108 28.872 134.228 29.168 133.188 29.168C132.308 29.168 131.692 28.992 131.34 28.64C130.988 28.288 130.804 27.816 130.788 27.224C129.988 28.52 128.812 29.168 127.26 29.168ZM129.108 27.632C129.732 27.632 130.276 27.304 130.74 26.648V21.728C130.548 22.048 130.14 22.4 129.516 22.784C128.892 23.184 128.42 23.584 128.1 23.984C127.78 24.384 127.62 24.96 127.62 25.712C127.62 26.368 127.756 26.856 128.028 27.176C128.3 27.48 128.66 27.632 129.108 27.632ZM148.322 26.36C148.322 27.096 148.434 27.632 148.658 27.968C148.882 28.304 149.282 28.472 149.858 28.472V28.976C149.362 28.928 148.866 28.904 148.37 28.904C146.946 28.904 145.778 29.016 144.866 29.24V27.176C144.322 28.616 143.282 29.336 141.746 29.336C140.242 29.336 139.042 28.792 138.146 27.704C137.266 26.6 136.834 24.944 136.85 22.736C136.85 21.328 137.074 20.144 137.521 19.184C137.986 18.208 138.618 17.48 139.418 17C140.234 16.504 141.162 16.256 142.202 16.256C143.37 16.256 144.258 16.56 144.866 17.168V13.088C144.866 12.352 144.746 11.816 144.506 11.48C144.282 11.144 143.89 10.976 143.33 10.976V10.472C143.842 10.52 144.338 10.544 144.818 10.544C146.21 10.544 147.378 10.432 148.322 10.208V26.36ZM142.73 28.304C143.258 28.304 143.722 28.112 144.122 27.728C144.538 27.344 144.786 26.824 144.866 26.168V17.768C144.466 17.224 143.882 16.952 143.114 16.952C142.266 16.952 141.61 17.44 141.146 18.416C140.682 19.392 140.458 20.848 140.474 22.784C140.458 24.736 140.642 26.144 141.026 27.008C141.426 27.872 141.994 28.304 142.73 28.304Z" fill="#468963"/>
</svg>
